<svg width="221" height="154" viewBox="0 0 221 154" xmlns="http://www.w3.org/2000/svg" xmlns:xlink="http://www.w3.org/1999/xlink"><svg width="50" height="50" viewBox="-1 -1 50 50" y="54" xmlns="http://www.w3.org/2000/svg"><path fill="#CDAA69" d="M17.02 22.25a1.746 1.746 0 1 1-3.491.009 1.746 1.746 0 0 1 3.491-.009zm4.89-4.18c0 .96-.79 1.74-1.75 1.74s-1.74-.78-1.74-1.74c0-.97.78-1.75 1.74-1.75s1.75.78 1.75 1.75zm4.18 11.51c0 1.16-.93 2.1-2.09 2.1s-2.09-.94-2.09-2.1a2.09 2.09 0 1 1 4.18 0zm1.4-11.51c0 .96-.78 1.74-1.74 1.74a1.746 1.746 0 1 1 1.74-1.74zm5.59 2.79a1.75 1.75 0 0 1-3.5 0c0-.97.79-1.75 1.75-1.75s1.75.78 1.75 1.75z"/><path fill="#CDAA69" d="M24 0C10.75 0 0 10.74 0 24s10.75 24 24 24c13.26 0 24-10.74 24-24S37.26 0 24 0zm0 34.47c-2.79 0-4.89-2.09-4.89-4.89 0-2.09-1.39-2.79-4.19-2.79-2.79 0-4.18-2.09-4.18-4.88 0-2.8 4.18-8.38 11.17-8.38 8.37 0 15.35 2.79 15.35 11.17 0 4.88-4.18 9.77-13.26 9.77z"/></svg><svg width="50" height="50" viewBox="-1 -1 50 50" x="50" y="54" xmlns="http://www.w3.org/2000/svg"><path fill="#CDAA69" d="M21.94 21.47H27V24h-5.06zm0 5.06H27v2.53h-5.06z"/><path fill="#CDAA69" d="M24 0C10.75 0 0 10.74 0 24s10.75 24 24 24c13.26 0 24-10.74 24-24S37.26 0 24 0zm10.58 21.47h-2.65c.13.38.13.89.13 1.27V24h2.52v2.53h-2.52v1.26c0 .38 0 .89-.13 1.27h2.65v2.52h-3.54c-1.26 2.28-3.79 3.8-6.57 3.8-2.78 0-5.31-1.52-6.57-3.8h-3.54v-2.52h2.66c-.13-.38-.13-.89-.13-1.27v-1.26h-2.53V24h2.53v-1.26c0-.38 0-.89.13-1.27h-2.66v-2.53h3.54c.63-1.01 1.39-1.89 2.27-2.52l-2.02-2.03 1.77-1.77 2.78 2.79c.51-.13 1.14-.26 1.77-.26.63 0 1.27.13 1.77.26l2.78-2.79 1.77 1.77-2.02 2.03c.88.63 1.64 1.51 2.27 2.52h3.54v2.53z"/><title/></svg><svg width="50" height="50" viewBox="-1 -1 50 50" x="121" xmlns="http://www.w3.org/2000/svg"><path fill="#CDAA69" d="M24 0C10.75 0 0 10.74 0 24s10.75 24 24 24c13.26 0 24-10.74 24-24S37.26 0 24 0zm-7.46 32.88l-2.25 3.7L4.77 25l9.52-11.58 2.25 3.7L10.12 25l6.42 7.88zm7.89 3.43h-4.18l6.64-22.68h4.18l-6.64 22.68zm9.35.27l-2.25-3.7L37.94 25l-6.41-7.88 2.25-3.7L43.29 25l-9.51 11.58z"/></svg><svg width="50" height="50" viewBox="-1 -1 50 50" x="121" y="50" xmlns="http://www.w3.org/2000/svg"><g fill="#291B2C"><path d="M24 0C10.747 0 0 10.745 0 24s10.747 24 24 24c13.255 0 24-10.745 24-24S37.255 0 24 0zm0 44.606C12.62 44.606 3.394 35.38 3.394 24 3.394 12.619 12.62 3.394 24 3.394c11.381 0 20.608 9.225 20.608 20.606 0 11.38-9.227 20.606-20.608 20.606z"/><path d="M24 5.435C13.748 5.435 5.435 13.748 5.435 24c0 10.254 8.313 18.565 18.565 18.565 10.254 0 18.567-8.311 18.567-18.565 0-10.252-8.313-18.565-18.567-18.565zm-2.126 8.631a2.739 2.739 0 0 1 1.925-.743 2.72 2.72 0 0 1 1.918.743c.532.5.798 1.095.798 1.794 0 .699-.268 1.294-.807 1.787a2.733 2.733 0 0 1-1.909.74c-.745 0-1.388-.245-1.925-.74-.539-.492-.807-1.088-.807-1.787 0-.699.268-1.295.807-1.794zm6.659 20.611h-8.722v-1.006c.238-.018.473-.043.704-.069.229-.028.427-.073.592-.139.295-.108.501-.27.622-.476.119-.206.181-.48.181-.82v-8.032c0-.322-.075-.603-.22-.846a1.827 1.827 0 0 0-.553-.588c-.165-.108-.418-.215-.752-.316a5.023 5.023 0 0 0-.917-.194v-1.006l6.761-.357.206.204v10.955c0 .324.071.596.206.821.139.226.336.393.594.505.185.082.389.156.608.219.222.066.45.11.69.139v1.006z"/></g></svg><svg width="121" height="54" viewBox="-1 -1 121 54" xmlns="http://www.w3.org/2000/svg"><g fill="#FFF"><path d="M8.818 14.42v7.153h29.903V14.42H8.818zm4.985 4.769h-2.492v-2.384h2.492v2.384zm4.984 0h-2.492v-2.384h2.492v2.384zm17.442 0H21.28v-2.384h14.95v2.384zm-27.41 7.152h29.903v16.694H8.819z"/><path d="M114.242.404H4.675a4.629 4.629 0 0 0-4.63 4.63v41.933a4.629 4.629 0 0 0 4.63 4.63h109.567a4.629 4.629 0 0 0 4.63-4.63V5.034a4.629 4.629 0 0 0-4.63-4.63zM43.915 45.377c0 1.339-1.115 2.427-2.488 2.427-.035 0-.069-.004-.104-.008-.035.004-.069.008-.108.008H6.326a2.543 2.543 0 0 1-1.763-.698 2.324 2.324 0 0 1-.729-1.686V12.036c0-.66.278-1.258.729-1.686a2.543 2.543 0 0 1 1.763-.698H38.93V6.727c0-1.343 1.119-2.427 2.496-2.427.687 0 1.308.27 1.759.71a2.39 2.39 0 0 1 .729 1.717v38.65zm6.153.092c0 1.339-1.115 2.431-2.488 2.431a2.524 2.524 0 0 1-1.767-.714 2.39 2.39 0 0 1-.729-1.717V6.824c0-1.343 1.115-2.431 2.496-2.431.687 0 1.308.27 1.759.714.451.436.729 1.046.729 1.717v38.645zm29.464 1.497c-.436.509-1.061.787-1.717.829a2.819 2.819 0 0 1-1.914-.598L54.019 29.956l-.116-.093-3.156-2.485-.131-.104a.739.739 0 0 1-.12-.432c0-.12.023-.228.062-.32l.235-.22 2.971-2.724.139-.127L73.965 5.038c1.057-.972 2.685-.984 3.638-.035.478.475.694 1.1.66 1.732a2.55 2.55 0 0 1-.849 1.744L57.996 26.303l-.355.328.961.756 20.471 16.13c1.126.888 1.334 2.435.459 3.449zm4.448.837a2.528 2.528 0 0 1-1.763-.71 2.39 2.39 0 0 1-.729-1.717l-.024-38.649c0-1.339 1.115-2.427 2.492-2.427.687 0 1.312.27 1.763.71.451.436.729 1.046.729 1.717l.023 38.646c.001 1.339-1.114 2.43-2.491 2.43zm33.094-22.129l-.239.22-2.967 2.724-.139.127-20.066 18.414c-1.057.972-2.681.988-3.634.035a2.243 2.243 0 0 1-.66-1.732 2.553 2.553 0 0 1 .845-1.744l19.421-17.824.355-.328-.961-.756-20.47-16.131c-1.127-.887-1.335-2.434-.463-3.449.44-.509 1.065-.787 1.721-.829a2.803 2.803 0 0 1 1.91.598l21.886 17.245.116.089 3.152 2.485.131.104c.077.096.123.255.123.432a.826.826 0 0 1-.061.32z"/></g></svg><svg width="50" height="50" viewBox="-1 -1 50 50" y="104" xmlns="http://www.w3.org/2000/svg"><g fill="#FFF"><path d="M24 0C10.75 0 0 10.74 0 24c0 13.25 10.75 24 24 24 13.26 0 24-10.75 24-24C48 10.74 37.26 0 24 0zm0 44.6C12.62 44.6 3.4 35.38 3.4 24S12.62 3.39 24 3.39 44.61 12.62 44.61 24 35.38 44.6 24 44.6z"/><path d="M24 5.43C13.75 5.43 5.44 13.74 5.44 24c0 10.25 8.31 18.56 18.56 18.56 10.26 0 18.57-8.31 18.57-18.56 0-10.26-8.31-18.57-18.57-18.57zm-7.25 28.5l-3.1.93.74-3.16.75-3.15 2.36 2.22L19.86 33l-3.11.93zm4.21-2.05l-4.74-4.45 13.4-14.3 4.74 4.45-13.4 14.3z"/></g></svg><svg width="50" height="50" viewBox="-1 -1 50 50" x="50" y="104" xmlns="http://www.w3.org/2000/svg"><g fill="#CDAA69"><path d="M24 0C10.74 0 0 10.75 0 24s10.74 24 24 24c13.25 0 24-10.75 24-24S37.25 0 24 0zm0 44.61C12.62 44.61 3.39 35.38 3.39 24S12.62 3.39 24 3.39c11.38 0 20.6 9.23 20.6 20.61S35.38 44.61 24 44.61z"/><path d="M24 5.43C13.74 5.43 5.43 13.75 5.43 24S13.74 42.56 24 42.56c10.25 0 18.56-8.31 18.56-18.56S34.25 5.43 24 5.43zm8.14 31.1L24 32.25l-8.15 4.28 1.56-9.07-6.59-6.42 9.11-1.32L24 11.47l4.07 8.25 9.1 1.32-6.59 6.42 1.56 9.07z"/></g></svg><svg width="50" height="50" viewBox="-1 -1 50 50" x="100" y="104" xmlns="http://www.w3.org/2000/svg"><path fill="#291B2C" d="M24 0C10.75 0 0 10.74 0 24s10.75 24 24 24c13.26 0 24-10.74 24-24S37.26 0 24 0zm0 44.61C12.62 44.61 3.39 35.38 3.39 24S12.62 3.39 24 3.39 44.61 12.62 44.61 24 35.38 44.61 24 44.61z"/><path fill="#291B2C" d="M22.68 15.6h2.64v1.33h-2.64zm9.26 3.97v5.29h-5.29v-1.32h-5.3v1.32h-5.29v-5.29zm-5.29 6.62h5.29v5.29H16.06v-5.29h5.29v1.32h5.3z"/><path fill="#291B2C" d="M24 5.43C13.75 5.43 5.43 13.75 5.43 24S13.75 42.57 24 42.57 42.57 34.25 42.57 24 34.25 5.43 24 5.43zM34.58 32.8c0 .73-.59 1.32-1.32 1.32H14.74c-.73 0-1.32-.59-1.32-1.32V18.25c0-.73.59-1.32 1.32-1.32h5.29v-2.65c0-.73.59-1.32 1.32-1.32h5.3c.73 0 1.32.59 1.32 1.32v2.65h5.29c.73 0 1.32.59 1.32 1.32V32.8z"/></svg><svg width="50" height="50" viewBox="-1 -1 50 50" x="171" xmlns="http://www.w3.org/2000/svg"><g fill="#CDAA69"><path d="M10.21 17.72l7.31 19.97C12.4 35.26 8.85 30.05 8.85 24c0-2.24.49-4.37 1.36-6.28zm14.05 7.4l4.81 13.16c-1.58.56-3.29.87-5.07.87-1.53 0-3.01-.23-4.41-.65l4.67-13.38z"/><path d="M16.69 15.63c-1.84.1-3.68.12-5.4.13 2.7-4.16 7.38-6.91 12.71-6.91 3.95 0 7.55 1.52 10.25 3.99-1.32-.03-2.64.76-2.7 2.55-.11 3.64 4.35 4.42 1.95 11.73l-1.99 6.06-5.41-15.96c-.09-.24.01-.38.31-.38h1.53c.08 0 .15-.07.15-.15v-.91c0-.08-.07-.16-.15-.15-2.9.13-5.78.13-8.64 0-.08-.01-.15.07-.15.15v.91c0 .08.07.15.15.15h1.54c.34 0 .43.11.51.33l2.23 6.09-3.35 10.11-5.5-16.21c-.07-.2.01-.32.21-.32h1.75c.08 0 .15-.07.15-.15v-.91c0-.08-.07-.16-.15-.15zM39.15 24c0 5.73-3.18 10.72-7.88 13.29L36 23.91c.73-2.07 1.41-4.87 1.32-7.12A14.99 14.99 0 0 1 39.15 24z"/><path d="M40.97 7.03c-.54-.54-1.11-1.06-1.71-1.55-.59-.49-1.21-.95-1.85-1.38A23.812 23.812 0 0 0 28.83.49a23.978 23.978 0 0 0-9.93.06c-.58.12-1.15.26-1.71.44-.21.05-.41.12-.61.18-1.03.33-2.02.73-2.98 1.19-1.91.93-3.69 2.09-5.27 3.47-.45.38-.88.78-1.3 1.2-.42.42-.82.85-1.2 1.3a23.796 23.796 0 0 0-3.47 5.27c-.46.96-.86 1.95-1.19 2.98-.07.2-.13.4-.18.61-.18.56-.32 1.13-.44 1.71a23.978 23.978 0 0 0-.06 9.93c.16.78.35 1.55.59 2.3.7 2.26 1.72 4.37 3.02 6.28.43.64.89 1.26 1.38 1.85.49.6 1.01 1.17 1.55 1.71C11.38 45.31 17.38 48 24 48c13.25 0 24-10.75 24-24 0-6.63-2.69-12.63-7.03-16.97zM24 40.57c-9.15 0-16.57-7.42-16.57-16.57S14.85 7.43 24 7.43 40.57 14.85 40.57 24 33.15 40.57 24 40.57z"/></g></svg></svg>