<svg width="264" height="222" viewBox="0 0 264 222" xmlns="http://www.w3.org/2000/svg" xmlns:xlink="http://www.w3.org/1999/xlink"><svg width="50" height="50" viewBox="-1 -1 50 50" x="150" y="171.38" xmlns="http://www.w3.org/2000/svg"><path fill="#CDAA69" d="M17.02 22.25a1.746 1.746 0 1 1-3.491.009 1.746 1.746 0 0 1 3.491-.009zm4.89-4.18c0 .96-.79 1.74-1.75 1.74s-1.74-.78-1.74-1.74c0-.97.78-1.75 1.74-1.75s1.75.78 1.75 1.75zm4.18 11.51c0 1.16-.93 2.1-2.09 2.1s-2.09-.94-2.09-2.1a2.09 2.09 0 1 1 4.18 0zm1.4-11.51c0 .96-.78 1.74-1.74 1.74a1.746 1.746 0 1 1 1.74-1.74zm5.59 2.79a1.75 1.75 0 0 1-3.5 0c0-.97.79-1.75 1.75-1.75s1.75.78 1.75 1.75z"/><path fill="#CDAA69" d="M24 0C10.75 0 0 10.74 0 24s10.75 24 24 24c13.26 0 24-10.74 24-24S37.26 0 24 0zm0 34.47c-2.79 0-4.89-2.09-4.89-4.89 0-2.09-1.39-2.79-4.19-2.79-2.79 0-4.18-2.09-4.18-4.88 0-2.8 4.18-8.38 11.17-8.38 8.37 0 15.35 2.79 15.35 11.17 0 4.88-4.18 9.77-13.26 9.77z"/></svg><svg width="58.69" height="58.69" viewBox="-1 -1 58.69 58.69" y="112.69" xmlns="http://www.w3.org/2000/svg"><path d="M23.556 29.975s4.701-.35 4.701-5.863c0-5.514-3.846-8.206-8.719-8.206H3.503v30.815h16.035s9.788.309 9.788-9.096c-.001 0 .427-7.65-5.77-7.65zm-12.988-8.592h8.969s2.18 0 2.18 3.205c0 3.207-1.283 3.672-2.736 3.672h-8.414v-6.877h.001zm8.516 19.861c-.237.006-.438 0-.573 0h-7.943V33.01h8.97s3.249-.043 3.249 4.23c-.001 3.606-2.427 3.977-3.703 4.004zm23.298-17.498c-11.85 0-11.84 11.84-11.84 11.84s-.812 11.779 11.84 11.779c0 0 10.545.602 10.545-8.195h-5.424s.18 3.314-4.941 3.314c0 0-5.422.361-5.422-5.363h15.967c-.001 0 1.747-13.375-10.725-13.375zm-5.303 9.264s.662-4.75 5.422-4.75c4.762 0 4.699 4.75 4.699 4.75H37.079zm-1.326-15.289h12.711v3.795H35.753z" fill="#FFF"/></svg><svg width="50" height="50" viewBox="-1 -1 50 50" x="50" y="171.38" xmlns="http://www.w3.org/2000/svg"><path fill="#CDAA69" d="M21.94 21.47H27V24h-5.06zm0 5.06H27v2.53h-5.06z"/><path fill="#CDAA69" d="M24 0C10.75 0 0 10.74 0 24s10.75 24 24 24c13.26 0 24-10.74 24-24S37.26 0 24 0zm10.58 21.47h-2.65c.13.38.13.89.13 1.27V24h2.52v2.53h-2.52v1.26c0 .38 0 .89-.13 1.27h2.65v2.52h-3.54c-1.26 2.28-3.79 3.8-6.57 3.8-2.78 0-5.31-1.52-6.57-3.8h-3.54v-2.52h2.66c-.13-.38-.13-.89-.13-1.27v-1.26h-2.53V24h2.53v-1.26c0-.38 0-.89.13-1.27h-2.66v-2.53h3.54c.63-1.01 1.39-1.89 2.27-2.52l-2.02-2.03 1.77-1.77 2.78 2.79c.51-.13 1.14-.26 1.77-.26.63 0 1.27.13 1.77.26l2.78-2.79 1.77 1.77-2.02 2.03c.88.63 1.64 1.51 2.27 2.52h3.54v2.53z"/><title/></svg><svg width="50" height="50" viewBox="-1 -1 50 50" x="179.69" xmlns="http://www.w3.org/2000/svg"><path fill="#CDAA69" d="M24 0C10.75 0 0 10.74 0 24s10.75 24 24 24c13.26 0 24-10.74 24-24S37.26 0 24 0zm-7.46 32.88l-2.25 3.7L4.77 25l9.52-11.58 2.25 3.7L10.12 25l6.42 7.88zm7.89 3.43h-4.18l6.64-22.68h4.18l-6.64 22.68zm9.35.27l-2.25-3.7L37.94 25l-6.41-7.88 2.25-3.7L43.29 25l-9.51 11.58z"/></svg><svg height="34" viewBox="-1 -1 34 34" width="34" x="229.69" xmlns="http://www.w3.org/2000/svg"><path d="M14.77 23.795L5.185 14.21a2.265 2.265 0 0 1 0-3.195l.8-.801a2.266 2.266 0 0 1 3.194 0l7.315 7.315 7.316-7.315a2.266 2.266 0 0 1 3.194 0l.8.801a2.265 2.265 0 0 1 0 3.195l-9.587 9.585a2.242 2.242 0 0 1-1.723.647 2.247 2.247 0 0 1-1.724-.647z" fill="#515151"/></svg><svg width="58.69" height="58.69" viewBox="-1 -1 58.69 58.69" x="58.69" y="112.69" xmlns="http://www.w3.org/2000/svg"><path fill="#FFF" d="M40.43 21.739h-7.645v-5.014c0-1.883 1.248-2.322 2.127-2.322h5.395V6.125l-7.43-.029c-8.248 0-10.125 6.174-10.125 10.125v5.518h-4.77v8.53h4.77v24.137h10.033V30.269h6.77l.875-8.53z"/></svg><svg width="58.69" height="58.69" viewBox="-1 -1 58.69 58.69" x="117.38" y="112.69" xmlns="http://www.w3.org/2000/svg"><g fill="#FFF"><path d="M52.218 25.852h-7.512v-7.51c0-.573-.465-1.039-1.037-1.039H41.53a1.04 1.04 0 0 0-1.041 1.039v7.51h-7.512c-.572 0-1.039.467-1.039 1.041v2.139a1.04 1.04 0 0 0 1.039 1.039h7.512v7.514a1.04 1.04 0 0 0 1.041 1.039h2.139c.572 0 1.037-.465 1.037-1.039V30.07h7.512a1.04 1.04 0 0 0 1.039-1.039v-2.139a1.04 1.04 0 0 0-1.039-1.04z"/><path d="M26.974 32.438c-1.58-1.119-3.016-2.76-3.041-3.264 0-.918.082-1.357 2.141-2.961 2.662-2.084 4.128-4.824 4.128-7.719 0-2.625-.802-4.957-2.167-6.595h1.059c.219 0 .434-.068.609-.196l2.955-2.141c.367-.263.521-.732.381-1.161a1.042 1.042 0 0 0-.988-.72H18.835c-1.446 0-2.915.255-4.357.751-4.816 1.661-8.184 5.765-8.184 9.978 0 5.969 4.624 10.493 10.805 10.635a5.623 5.623 0 0 0-.182 1.396c0 .92.233 1.791.713 2.633h-.17c-5.892 0-11.21 2.891-13.229 7.193-.526 1.119-.794 2.25-.794 3.367a6.33 6.33 0 0 0 .826 3.113c1.269 2.27 3.994 4.031 7.677 4.961 1.901.48 3.944.725 6.065.725 1.906 0 3.723-.246 5.403-.732 5.238-1.521 8.625-5.377 8.625-9.828-.001-4.271-1.374-6.828-5.059-9.435zm-16.691 9.777c0-3.107 3.947-5.832 8.446-5.832h.121c.979.012 1.934.156 2.834.432.309.213.607.416.893.611 2.084 1.42 3.461 2.357 3.844 3.861.09.379.135.758.135 1.125 0 3.869-2.885 5.83-8.578 5.83-4.315 0-7.695-2.646-7.695-6.027zm4.094-29.357c.703-.803 1.624-1.227 2.658-1.227l.117.002c2.921.086 5.716 3.341 6.23 7.256.289 2.192-.199 4.253-1.301 5.509-.705.805-1.613 1.229-2.689 1.229h-.049c-2.861-.088-5.716-3.467-6.227-7.377-.287-2.186.173-4.151 1.261-5.392z"/></g></svg><svg width="50" height="50" viewBox="-1 -1 50 50" x="121" y="58.69" xmlns="http://www.w3.org/2000/svg"><g fill="#291B2C"><path d="M24 0C10.747 0 0 10.745 0 24s10.747 24 24 24c13.255 0 24-10.745 24-24S37.255 0 24 0zm0 44.606C12.62 44.606 3.394 35.38 3.394 24 3.394 12.619 12.62 3.394 24 3.394c11.381 0 20.608 9.225 20.608 20.606 0 11.38-9.227 20.606-20.608 20.606z"/><path d="M24 5.435C13.748 5.435 5.435 13.748 5.435 24c0 10.254 8.313 18.565 18.565 18.565 10.254 0 18.567-8.311 18.567-18.565 0-10.252-8.313-18.565-18.567-18.565zm-2.126 8.631a2.739 2.739 0 0 1 1.925-.743 2.72 2.72 0 0 1 1.918.743c.532.5.798 1.095.798 1.794 0 .699-.268 1.294-.807 1.787a2.733 2.733 0 0 1-1.909.74c-.745 0-1.388-.245-1.925-.74-.539-.492-.807-1.088-.807-1.787 0-.699.268-1.295.807-1.794zm6.659 20.611h-8.722v-1.006c.238-.018.473-.043.704-.069.229-.028.427-.073.592-.139.295-.108.501-.27.622-.476.119-.206.181-.48.181-.82v-8.032c0-.322-.075-.603-.22-.846a1.827 1.827 0 0 0-.553-.588c-.165-.108-.418-.215-.752-.316a5.023 5.023 0 0 0-.917-.194v-1.006l6.761-.357.206.204v10.955c0 .324.071.596.206.821.139.226.336.393.594.505.185.082.389.156.608.219.222.066.45.11.69.139v1.006z"/></g></svg><svg width="58.69" height="58.69" viewBox="-1 -1 58.69 58.69" y="54" xmlns="http://www.w3.org/2000/svg"><path fill="#F9F9F9" d="M43.414 4.831H13c-5.283 0-9.581 4.297-9.581 9.58v30.415c0 5.283 4.298 9.58 9.581 9.58h30.415c5.283 0 9.58-4.297 9.58-9.58V14.41c-.001-5.283-4.298-9.579-9.581-9.579zm2.748 5.713l1.096-.004v8.403l-8.375.027-.029-8.402 7.308-.024zM21.131 24.53c1.588-2.197 4.164-3.638 7.076-3.638s5.488 1.441 7.074 3.638a8.677 8.677 0 0 1 1.652 5.088c0 4.811-3.918 8.725-8.727 8.725-4.812 0-8.726-3.914-8.726-8.725a8.683 8.683 0 0 1 1.651-5.088zm27.033 20.295a4.754 4.754 0 0 1-4.75 4.75H13a4.755 4.755 0 0 1-4.751-4.75V24.53h7.4a13.483 13.483 0 0 0-.998 5.088c0 7.473 6.08 13.557 13.556 13.557 7.475 0 13.555-6.084 13.555-13.557 0-1.799-.361-3.516-1-5.088h7.402v20.295z"/></svg><svg width="121" height="54" viewBox="-1 -1 121 54" xmlns="http://www.w3.org/2000/svg"><g fill="#FFF"><path d="M8.818 14.42v7.153h29.903V14.42H8.818zm4.985 4.769h-2.492v-2.384h2.492v2.384zm4.984 0h-2.492v-2.384h2.492v2.384zm17.442 0H21.28v-2.384h14.95v2.384zm-27.41 7.152h29.903v16.694H8.819z"/><path d="M114.242.404H4.675a4.629 4.629 0 0 0-4.63 4.63v41.933a4.629 4.629 0 0 0 4.63 4.63h109.567a4.629 4.629 0 0 0 4.63-4.63V5.034a4.629 4.629 0 0 0-4.63-4.63zM43.915 45.377c0 1.339-1.115 2.427-2.488 2.427-.035 0-.069-.004-.104-.008-.035.004-.069.008-.108.008H6.326a2.543 2.543 0 0 1-1.763-.698 2.324 2.324 0 0 1-.729-1.686V12.036c0-.66.278-1.258.729-1.686a2.543 2.543 0 0 1 1.763-.698H38.93V6.727c0-1.343 1.119-2.427 2.496-2.427.687 0 1.308.27 1.759.71a2.39 2.39 0 0 1 .729 1.717v38.65zm6.153.092c0 1.339-1.115 2.431-2.488 2.431a2.524 2.524 0 0 1-1.767-.714 2.39 2.39 0 0 1-.729-1.717V6.824c0-1.343 1.115-2.431 2.496-2.431.687 0 1.308.27 1.759.714.451.436.729 1.046.729 1.717v38.645zm29.464 1.497c-.436.509-1.061.787-1.717.829a2.819 2.819 0 0 1-1.914-.598L54.019 29.956l-.116-.093-3.156-2.485-.131-.104a.739.739 0 0 1-.12-.432c0-.12.023-.228.062-.32l.235-.22 2.971-2.724.139-.127L73.965 5.038c1.057-.972 2.685-.984 3.638-.035.478.475.694 1.1.66 1.732a2.55 2.55 0 0 1-.849 1.744L57.996 26.303l-.355.328.961.756 20.471 16.13c1.126.888 1.334 2.435.459 3.449zm4.448.837a2.528 2.528 0 0 1-1.763-.71 2.39 2.39 0 0 1-.729-1.717l-.024-38.649c0-1.339 1.115-2.427 2.492-2.427.687 0 1.312.27 1.763.71.451.436.729 1.046.729 1.717l.023 38.646c.001 1.339-1.114 2.43-2.491 2.43zm33.094-22.129l-.239.22-2.967 2.724-.139.127-20.066 18.414c-1.057.972-2.681.988-3.634.035a2.243 2.243 0 0 1-.66-1.732 2.553 2.553 0 0 1 .845-1.744l19.421-17.824.355-.328-.961-.756-20.47-16.131c-1.127-.887-1.335-2.434-.463-3.449.44-.509 1.065-.787 1.721-.829a2.803 2.803 0 0 1 1.91.598l21.886 17.245.116.089 3.152 2.485.131.104c.077.096.123.255.123.432a.826.826 0 0 1-.061.32z"/></g></svg><svg width="50" height="50" viewBox="-1 -1 50 50" x="179.69" y="50" xmlns="http://www.w3.org/2000/svg"><g fill="#FFF"><path d="M24 0C10.75 0 0 10.74 0 24c0 13.25 10.75 24 24 24 13.26 0 24-10.75 24-24C48 10.74 37.26 0 24 0zm0 44.6C12.62 44.6 3.4 35.38 3.4 24S12.62 3.39 24 3.39 44.61 12.62 44.61 24 35.38 44.6 24 44.6z"/><path d="M24 5.43C13.75 5.43 5.44 13.74 5.44 24c0 10.25 8.31 18.56 18.56 18.56 10.26 0 18.57-8.31 18.57-18.56 0-10.26-8.31-18.57-18.57-18.57zm-7.25 28.5l-3.1.93.74-3.16.75-3.15 2.36 2.22L19.86 33l-3.11.93zm4.21-2.05l-4.74-4.45 13.4-14.3 4.74 4.45-13.4 14.3z"/></g></svg><svg width="34" height="34" viewBox="-1 -1 34 34" x="229.69" y="34" xmlns="http://www.w3.org/2000/svg"><g fill="#CEAA6A"><path d="M32 4H0V0h32zm-12 8H0V8h20zm12 8.086H0v-4h32z"/><circle cx="2" cy="30" r="2"/><path d="M12 30a2.001 2.001 0 0 1-4.004 0A2.001 2.001 0 1 1 12 30z"/><circle cx="18" cy="30" r="2"/></g></svg><svg width="50" height="50" viewBox="-1 -1 50 50" x="179.69" y="100" xmlns="http://www.w3.org/2000/svg"><g fill="#CDAA69"><path d="M24 0C10.74 0 0 10.75 0 24s10.74 24 24 24c13.25 0 24-10.75 24-24S37.25 0 24 0zm0 44.61C12.62 44.61 3.39 35.38 3.39 24S12.62 3.39 24 3.39c11.38 0 20.6 9.23 20.6 20.61S35.38 44.61 24 44.61z"/><path d="M24 5.43C13.74 5.43 5.43 13.75 5.43 24S13.74 42.56 24 42.56c10.25 0 18.56-8.31 18.56-18.56S34.25 5.43 24 5.43zm8.14 31.1L24 32.25l-8.15 4.28 1.56-9.07-6.59-6.42 9.11-1.32L24 11.47l4.07 8.25 9.1 1.32-6.59 6.42 1.56 9.07z"/></g></svg><svg width="50" height="50" viewBox="-1 -1 50 50" y="171.38" xmlns="http://www.w3.org/2000/svg"><path fill="#291B2C" d="M24 0C10.75 0 0 10.74 0 24s10.75 24 24 24c13.26 0 24-10.74 24-24S37.26 0 24 0zm0 44.61C12.62 44.61 3.39 35.38 3.39 24S12.62 3.39 24 3.39 44.61 12.62 44.61 24 35.38 44.61 24 44.61z"/><path fill="#291B2C" d="M22.68 15.6h2.64v1.33h-2.64zm9.26 3.97v5.29h-5.29v-1.32h-5.3v1.32h-5.29v-5.29zm-5.29 6.62h5.29v5.29H16.06v-5.29h5.29v1.32h5.3z"/><path fill="#291B2C" d="M24 5.43C13.75 5.43 5.43 13.75 5.43 24S13.75 42.57 24 42.57 42.57 34.25 42.57 24 34.25 5.43 24 5.43zM34.58 32.8c0 .73-.59 1.32-1.32 1.32H14.74c-.73 0-1.32-.59-1.32-1.32V18.25c0-.73.59-1.32 1.32-1.32h5.29v-2.65c0-.73.59-1.32 1.32-1.32h5.3c.73 0 1.32.59 1.32 1.32v2.65h5.29c.73 0 1.32.59 1.32 1.32V32.8z"/></svg><svg width="58.69" height="58.69" viewBox="-1 -1 58.69 58.69" x="58.69" y="54" xmlns="http://www.w3.org/2000/svg"><path fill="#FFF" d="M52.837 15.065a20.11 20.11 0 0 1-5.805 1.591 10.125 10.125 0 0 0 4.444-5.592 20.232 20.232 0 0 1-6.418 2.454 10.093 10.093 0 0 0-7.377-3.192c-5.581 0-10.106 4.525-10.106 10.107 0 .791.089 1.562.262 2.303-8.4-.422-15.848-4.445-20.833-10.56a10.055 10.055 0 0 0-1.368 5.082c0 3.506 1.784 6.6 4.496 8.412a10.078 10.078 0 0 1-4.578-1.265l-.001.128c0 4.896 3.484 8.98 8.108 9.91a10.162 10.162 0 0 1-4.565.172c1.287 4.015 5.019 6.938 9.441 7.019a20.276 20.276 0 0 1-12.552 4.327c-.815 0-1.62-.048-2.411-.142a28.6 28.6 0 0 0 15.493 4.541c18.591 0 28.756-15.4 28.756-28.756 0-.438-.009-.875-.028-1.309a20.47 20.47 0 0 0 5.042-5.23z"/></svg><svg width="50" height="50" viewBox="-1 -1 50 50" x="100" y="171.38" xmlns="http://www.w3.org/2000/svg"><g fill="#CDAA69"><path d="M10.21 17.72l7.31 19.97C12.4 35.26 8.85 30.05 8.85 24c0-2.24.49-4.37 1.36-6.28zm14.05 7.4l4.81 13.16c-1.58.56-3.29.87-5.07.87-1.53 0-3.01-.23-4.41-.65l4.67-13.38z"/><path d="M16.69 15.63c-1.84.1-3.68.12-5.4.13 2.7-4.16 7.38-6.91 12.71-6.91 3.95 0 7.55 1.52 10.25 3.99-1.32-.03-2.64.76-2.7 2.55-.11 3.64 4.35 4.42 1.95 11.73l-1.99 6.06-5.41-15.96c-.09-.24.01-.38.31-.38h1.53c.08 0 .15-.07.15-.15v-.91c0-.08-.07-.16-.15-.15-2.9.13-5.78.13-8.64 0-.08-.01-.15.07-.15.15v.91c0 .08.07.15.15.15h1.54c.34 0 .43.11.51.33l2.23 6.09-3.35 10.11-5.5-16.21c-.07-.2.01-.32.21-.32h1.75c.08 0 .15-.07.15-.15v-.91c0-.08-.07-.16-.15-.15zM39.15 24c0 5.73-3.18 10.72-7.88 13.29L36 23.91c.73-2.07 1.41-4.87 1.32-7.12A14.99 14.99 0 0 1 39.15 24z"/><path d="M40.97 7.03c-.54-.54-1.11-1.06-1.71-1.55-.59-.49-1.21-.95-1.85-1.38A23.812 23.812 0 0 0 28.83.49a23.978 23.978 0 0 0-9.93.06c-.58.12-1.15.26-1.71.44-.21.05-.41.12-.61.18-1.03.33-2.02.73-2.98 1.19-1.91.93-3.69 2.09-5.27 3.47-.45.38-.88.78-1.3 1.2-.42.42-.82.85-1.2 1.3a23.796 23.796 0 0 0-3.47 5.27c-.46.96-.86 1.95-1.19 2.98-.07.2-.13.4-.18.61-.18.56-.32 1.13-.44 1.71a23.978 23.978 0 0 0-.06 9.93c.16.78.35 1.55.59 2.3.7 2.26 1.72 4.37 3.02 6.28.43.64.89 1.26 1.38 1.85.49.6 1.01 1.17 1.55 1.71C11.38 45.31 17.38 48 24 48c13.25 0 24-10.75 24-24 0-6.63-2.69-12.63-7.03-16.97zM24 40.57c-9.15 0-16.57-7.42-16.57-16.57S14.85 7.43 24 7.43 40.57 14.85 40.57 24 33.15 40.57 24 40.57z"/></g></svg><svg width="58.69" height="58.69" viewBox="-1 -1 58.69 58.69" x="121" xmlns="http://www.w3.org/2000/svg"><path fill="#FFF" d="M43.906 28.206h-31.12c-4.95 0-8.96 4.02-8.96 8.97v7.2c0 4.94 4.01 8.96 8.96 8.96h31.12c4.95 0 8.96-4.02 8.96-8.96v-7.2c.001-4.949-4.009-8.97-8.96-8.97zm-24.58 5.61h-2.9v14.38h-2.79v-14.38h-2.9v-2.45h8.59v2.45zm8.171 14.38h-2.48v-1.36c-.46.5-.94.89-1.43 1.15-.5.27-.98.39-1.44.39-.58 0-1.01-.18-1.3-.55s-.43-.92-.43-1.67v-10.37h2.48v9.52c0 .29.05.5.15.63.11.14.28.2.51.2.18 0 .41-.08.69-.26.28-.17.54-.39.77-.67v-9.43h2.48v12.42zm9-2.56c0 .87-.19 1.55-.58 2.02-.39.47-.95.7-1.69.7-.48 0-.92-.09-1.29-.27-.38-.18-.74-.46-1.07-.84v.95h-2.51v-16.83h2.51v5.42c.34-.37.7-.66 1.07-.86.38-.2.76-.29 1.14-.29.79 0 1.39.26 1.8.79.42.53.62 1.3.62 2.32v6.89zm8.61-3.35h-4.75v2.34c0 .65.08 1.11.24 1.36.17.25.45.38.85.38.41 0 .69-.11.86-.32.16-.22.24-.69.24-1.42v-.56h2.56v.63c0 1.27-.31 2.23-.94 2.88-.62.64-1.55.96-2.78.96-1.11 0-1.99-.34-2.63-1.02-.63-.68-.96-1.62-.96-2.82v-5.57c0-1.08.36-1.96 1.06-2.64.7-.67 1.6-1.01 2.71-1.01 1.14 0 2.01.31 2.62.94.61.63.92 1.53.92 2.71v3.16z"/><path d="M45.107 42.286v-3.16c0-1.18-.31-2.08-.92-2.71-.61-.63-1.48-.94-2.62-.94-1.11 0-2.01.34-2.71 1.01-.7.68-1.06 1.56-1.06 2.64v5.57c0 1.2.33 2.14.96 2.82.64.68 1.52 1.02 2.63 1.02 1.23 0 2.16-.32 2.78-.96.63-.65.94-1.61.94-2.88v-.63h-2.56v.56c0 .73-.08 1.2-.24 1.42-.17.21-.45.32-.86.32-.4 0-.68-.13-.85-.38-.16-.25-.24-.71-.24-1.36v-2.34h4.75zm-4.75-3.19c0-.52.08-.89.26-1.11.17-.23.45-.34.85-.34.38 0 .66.11.82.34.18.22.26.59.26 1.11v1.26h-2.19v-1.26zm-4.48-2.669c-.41-.53-1.01-.79-1.8-.79-.38 0-.76.09-1.14.29-.37.2-.73.49-1.07.86v-5.42h-2.51v16.83h2.51v-.95c.33.38.69.66 1.07.84.37.18.81.27 1.29.27.74 0 1.3-.23 1.69-.7.39-.47.58-1.15.58-2.02v-6.89c0-1.02-.2-1.791-.62-2.32zm-1.931 8.87c0 .39-.08.67-.22.85s-.36.27-.67.27c-.21 0-.41-.05-.6-.14-.19-.09-.39-.24-.58-.44v-7.73c.16-.17.33-.3.51-.38.17-.08.35-.12.52-.12.34 0 .59.11.78.32.17.22.26.53.26.95v6.42zm-6.449-9.521v12.42h-2.48v-1.36c-.46.5-.94.89-1.43 1.15-.5.27-.98.39-1.44.39-.58 0-1.01-.18-1.3-.55s-.43-.92-.43-1.67v-10.37h2.48v9.52c0 .29.05.5.15.63.11.14.28.2.51.2.18 0 .41-.08.69-.26.28-.17.54-.39.77-.67v-9.43h2.48zm-8.171-4.409v2.449h-2.899v14.38h-2.791v-14.38h-2.899v-2.449z"/><path fill="#FFF" d="M42.547 39.096v1.26h-2.19v-1.26c0-.52.08-.89.26-1.11.17-.23.45-.34.85-.34.38 0 .66.11.82.34.179.22.26.59.26 1.11zm-8.601-.219v6.42c0 .39-.08.67-.22.85s-.36.27-.67.27c-.21 0-.41-.05-.6-.14-.19-.09-.39-.24-.58-.44v-7.73c.16-.17.33-.3.51-.38.17-.08.35-.12.52-.12.34 0 .59.11.78.32.171.219.26.529.26.95zM16.858 23.898h3.144v-7.69L23.663 5.36h-3.196l-1.946 7.41h-.198L16.28 5.36h-3.167l3.745 11.194zm11.065.345c1.27 0 2.266-.333 2.992-.999.721-.669 1.082-1.582 1.082-2.752v-7.064c0-1.041-.369-1.898-1.104-2.559-.74-.659-1.688-.991-2.844-.991-1.27 0-2.281.314-3.033.941-.75.627-1.127 1.468-1.127 2.531v7.088c0 1.163.367 2.083 1.1 2.773.733.687 1.713 1.032 2.934 1.032zm-1.158-10.997a.93.93 0 0 1 .316-.725c.217-.184.492-.273.834-.273.369 0 .668.089.896.273.227.188.34.428.34.725v7.451c0 .365-.111.655-.336.864-.223.21-.523.313-.9.313-.369 0-.654-.1-.854-.31-.197-.205-.297-.493-.297-.868v-7.45h.001zm9.449 10.852c.525 0 1.064-.15 1.619-.438.561-.292 1.098-.719 1.609-1.276v1.515h2.793V10.224h-2.793v10.38c-.26.297-.549.541-.859.735-.316.192-.576.288-.781.288-.262 0-.455-.072-.568-.221-.115-.143-.18-.377-.18-.698V10.224h-2.789v11.429c0 .815.164 1.424.488 1.828.33.41.812.617 1.461.617z"/></svg></svg>